# xmcd
#
# Track frame offsets: 
#        182
#        14600
#        26792
#        42652
#        58232
#        74430
#        83807
#        97782
#        108047
#        118067
#
# Disc length: 1799 seconds
#
# Revision: 1
# Processed by: cddbd v1.5PL3 Copyright (c) Steve Scherf et al.
# Submitted via: ExactAudioCopy v0.90b3
#
DISCID=8507050a
DTITLE=The Persuasions - Street Corner Symphony
DYEAR=1999
DGENRE=A Cappella
TTITLE0=Buffalo Soldier
TTITLE1=Good Times
TTITLE2=I Could never Love Another (After Loving You)
TTITLE3=Tempts Jam 
TTITLE4=People Get Ready
TTITLE5=Christian's Automobile
TTITLE6=The Man In Me
TTITLE7=Be Good To Me Baby
TTITLE8=So Much In Love
TTITLE9=Medley
EXTD=Golden Classics
EXTT0=
EXTT1=
EXTT2=
EXTT3=
EXTT4=
EXTT5=
EXTT6=
EXTT7=
EXTT8=
EXTT9=
PLAYORDER=
